# xmcd
#
# Track frame offsets:
#	150
#	18147
#	37290
#	67300
#	79140
#	95712
#	108557
#	135320
#	152632
#	166880
#
# Disc length: 2520 seconds
#
# Revision: 0
# Processed by: cddbd v1.5.1PL0 Copyright (c) Steve Scherf et al.
# Submitted via: dBpowerAMP V4.0
#
DISCID=8209d60a
DTITLE=Johnnie and the Lowdowns - Johnnie and the Lowdowns
DYEAR=2004
DGENRE=Blues
TTITLE0=Brakeman
TTITLE1=Horizontal Bop
TTITLE2=All Alone In My Blues
TTITLE3=Sleeping Socks
TTITLE4=Big Railroad Blues
TTITLE5=Big Leg Woman
TTITLE6=Recycling Man
TTITLE7=Raining In My Heart
TTITLE8=Lowdown Boogie
TTITLE9=Long Distance Call
EXTD=
EXTT0=
EXTT1=
EXTT2=
EXTT3=
EXTT4=
EXTT5=
EXTT6=
EXTT7=
EXTT8=
EXTT9=
PLAYORDER=
